<?xml version="1.0" encoding="UTF-8" standalone="no"?>
<!DOCTYPE svg PUBLIC "-//W3C//DTD SVG 1.1//EN" "http://www.w3.org/Graphics/SVG/1.1/DTD/svg11.dtd">
<svg width="100%" height="100%" viewBox="0 0 200 199" version="1.1" xmlns="http://www.w3.org/2000/svg" xmlns:xlink="http://www.w3.org/1999/xlink" xml:space="preserve" xmlns:serif="http://www.serif.com/" style="fill-rule:evenodd;clip-rule:evenodd;stroke-linejoin:round;stroke-miterlimit:2;">
    <g transform="matrix(1,0,0,1,-1.46627e-05,-0.862671)">
        <path d="M124.615,158.942C194.326,134.262 190.916,42.893 140.767,0.863C184.318,20.349 206.756,72.952 198.203,118.905C191.512,154.854 164.558,184.522 129.69,194.524C111.34,199.788 91.695,200.819 73.085,196.201C36.436,187.108 7.653,155.954 1.303,118.778C-3.783,88.998 6.075,58.343 29.922,38.996C54.808,18.806 92.107,14.056 119.324,32.517C146.142,50.708 155.776,89.452 135.231,116.111C124.748,129.714 107.413,137.633 90.191,135.012C72.184,132.272 58.17,116.038 60.606,97.494C63.655,121.563 92.134,130.674 109.243,113.883C125.024,98.394 116.512,74.337 100.517,62.603C87.184,52.821 68.389,55.268 55.26,64.22C39.06,75.266 32.739,94.717 36.289,113.574C44.063,154.866 87.626,172.037 124.615,158.942L124.615,158.942Z" style="fill:url(#_Radial1);"/>
    </g>
    <defs>
        <radialGradient id="_Radial1" cx="0" cy="0" r="1" gradientUnits="userSpaceOnUse" gradientTransform="matrix(52.186,-99.1373,99.1373,52.186,88.8208,100)"><stop offset="0" style="stop-color:rgb(44,240,204);stop-opacity:1"/><stop offset="0.53" style="stop-color:rgb(44,230,209);stop-opacity:1"/><stop offset="1" style="stop-color:rgb(44,195,228);stop-opacity:1"/></radialGradient>
    </defs>
</svg>
